<svg xmlns="http://www.w3.org/2000/svg" xmlns:xlink="http://www.w3.org/1999/xlink" viewBox="0 0 512 512" width="528" height="528" preserveAspectRatio="xMidYMid meet" style="width: 100%; height: 100%; transform: translate3d(0px, 0px, 0px); content-visibility: visible;"><defs><clipPath id="__lottie_element_71"><rect width="512" height="512" x="0" y="0"/></clipPath></defs><g clip-path="url(#__lottie_element_71)"><g transform="matrix(1,0,0,1,256,256)" opacity="0.5" style="display: block;"><g opacity="1" transform="matrix(1,0,0,1,0,0)"><path fill="rgb(68,68,68)" fill-opacity="1" d=" M44.98611068725586,34.95833206176758 C-50.518775939941406,31.08361053466797 -64,36.5 -64,36.5 C-64,36.5 -97.75,40 -74,42.25 C-74,42 -76.23611450195312,51.27777862548828 -52.73611068725586,50.02777862548828 C-52.48611068725586,50.02777862548828 -46,49.72222137451172 -43.5,45.25 C-39.116722106933594,45.34238815307617 -33.30099868774414,47.80666732788086 -27.068944931030273,48.38577651977539 C-20.005332946777344,49.09205627441406 -15.79094409942627,46.851722717285156 -11.588000297546387,46.009056091308594 C-6.407222270965576,44.76033401489258 -3.5452778339385986,48.0623893737793 2.3906667232513428,48.48727798461914 C8.875222206115723,49.06144332885742 14.323721885681152,47.40538787841797 18.263111114501953,46.665611267089844 C60.27783203125,47.77361297607422 105.28916931152344,46.43422317504883 116.5,40.75 C116.5,40.5 128.26388549804688,38.34722137451172 44.98611068725586,34.95833206176758z"/></g></g><g transform="matrix(1,0,0,1,256,256)" opacity="1" style="display: block;"><g opacity="1" transform="matrix(1,0,0,1,0,0)"><path fill="rgb(74,144,226)" fill-opacity="1" d=" M68.44444274902344,-1.3055555820465088 C68.44444274902344,-1.3055555820465088 53.95833206176758,11.43055534362793 60.91666793823242,23.06944465637207 C66.87094116210938,32.90739059448242 80.69444274902344,39.75 89.69444274902344,40.5 C98.69444274902344,41.25 108.09722137451172,40.43055725097656 109.84722137451172,25.93055534362793 C111.59722137451172,11.43055534362793 105.15277862548828,4.902777671813965 96.40277862548828,1.4027777910232544 C87.65277862548828,-2.097222328186035 60.08988952636719,-14.149055480957031 54.15277862548828,-17.06944465637207 C49.88888931274414,-19.01388931274414 45.09722137451172,-23.36111068725586 45.09722137451172,-23.36111068725586 C45.09722137451172,-23.36111068725586 41.04166793823242,-28.52777862548828 38.91666793823242,-33.68055725097656 C37.09233474731445,-38.307777404785156 32.746612548828125,-51.508888244628906 27.80555534362793,-55.75 C17.86805534362793,-63.00694274902344 -4.237888813018799,-74.54533386230469 -27.84722137451172,-62.72222137451172 C-55.52777862548828,-48.91666793823242 -68.91666412353516,-40.55555725097656 -69.41666412353516,-39.55555725097656 C-69.66666412353516,-39.80555725097656 -94.94444274902344,-26.38888931274414 -74.5,22 C-73.5,23.5 -67,38 -55,41 C-43,44 -17.33333396911621,40.63888931274414 -1.3333333730697632,30.63888931274414 C-0.5833333134651184,30.13888931274414 27,36 39.25,32.5 C51.5,29 55.16666793823242,20.96477699279785 55.16666793823242,20.96477699279785 C55.16666793823242,20.96477699279785 52.375,20.812000274658203 52.375,20.812000274658203 C52.375,20.812000274658203 59.4379997253418,20.756444931030273 59.4379997253418,20.756444931030273"/></g><g opacity="1" transform="matrix(1,0,0,1,0,0)"><path fill="rgb(13,118,241)" fill-opacity="1" d=" M-26.93055534362793,-63.18055725097656 C-56.086944580078125,-47.883277893066406 -58.65277862548828,-44.75 -62.05555725097656,-39.93055725097656 C-63.9732780456543,-36.806610107421875 -80.125,-21.23611068725586 -68.66022491455078,1.179444432258606 C-67.62449645996094,3.92722225189209 -31.18922233581543,-13.066555976867676 -31.18922233581543,-13.066555976867676 C-31.18922233581543,-13.066555976867676 -63.51422119140625,17.118444442749023 -61.97222137451172,20.69444465637207 C-60.97222137451172,22.19444465637207 -58.75,31.5 -46.75,34.5 C-34.75,37.5 -9.902777671813965,35.70833206176758 6.097222328186035,25.70833396911621 C6.847222328186035,25.20833396911621 31.1918888092041,29.125667572021484 44.54166793823242,26.80555534362793 C50.381500244140625,25.771833419799805 53.48611068725586,20.506444931030273 53.48611068725586,20.506444931030273 C53.48611068725586,20.506444931030273 57.90277862548828,20.512887954711914 59.90277862548828,20.200889587402344 C57.86805725097656,8.18055534362793 67.06199645996094,0.5619999766349792 67.06199645996094,0.5619999766349792 C67.06199645996094,0.5619999766349792 69.25,-1.5 69.25,-1.5 C69.25,-1.5 93.894775390625,4.832388877868652 98.68055725097656,15.38888931274414 C105.394775390625,30.7098331451416 95.910888671875,40.23744583129883 98.88888549804688,39.625 C104.56366729736328,38.42444610595703 109.77777862548828,32.76388931274414 110.15277862548828,23.63888931274414 C110.75277709960938,9.045888900756836 100.11111450195312,2.152777671813965 91.36111450195312,-1.3472222089767456 C82.61111450195312,-4.847222328186035 65.36805725097656,-11.229166984558105 59.04166793823242,-14.395833015441895 C53.11188888549805,-17.329055786132812 48.15277862548828,-19.15972137451172 48.15277862548828,-19.15972137451172 C48.15277862548828,-19.15972137451172 43.40972137451172,-24.17361068725586 41.66666793823242,-28.63888931274414 C39.833168029785156,-33.26122283935547 35.83333206176758,-45.66666793823242 32.08333206176758,-51.16666793823242 C28.33333396911621,-56.66666793823242 2.5833332538604736,-78.66666412353516 -26.93055534362793,-63.18055725097656z"/></g><g opacity="1" transform="matrix(1,0,0,1,0,0)"><path stroke-linecap="round" stroke-linejoin="round" fill-opacity="0" stroke="rgb(107,0,116)" stroke-opacity="1" stroke-width="2" d=" M68.44444274902344,-1.3055555820465088 C68.44444274902344,-1.3055555820465088 53.95833206176758,11.43055534362793 60.91666793823242,23.06944465637207 C66.87094116210938,32.90739059448242 80.69444274902344,39.75 89.69444274902344,40.5 C98.69444274902344,41.25 108.09722137451172,40.43055725097656 109.84722137451172,25.93055534362793 C111.59722137451172,11.43055534362793 105.15277862548828,4.902777671813965 96.40277862548828,1.4027777910232544 C87.65277862548828,-2.097222328186035 60.08988952636719,-14.149055480957031 54.15277862548828,-17.06944465637207 C49.88888931274414,-19.01388931274414 45.09722137451172,-23.36111068725586 45.09722137451172,-23.36111068725586 C45.09722137451172,-23.36111068725586 41.04166793823242,-28.52777862548828 38.91666793823242,-33.68055725097656 C37.09233474731445,-38.307777404785156 32.746612548828125,-51.508888244628906 27.80555534362793,-55.75 C17.86805534362793,-63.00694274902344 -4.237888813018799,-74.54533386230469 -27.84722137451172,-62.72222137451172 C-55.52777862548828,-48.91666793823242 -68.91666412353516,-40.55555725097656 -69.41666412353516,-39.55555725097656 C-69.66666412353516,-39.80555725097656 -94.94444274902344,-26.38888931274414 -74.5,22 C-73.5,23.5 -67,38 -55,41 C-43,44 -17.33333396911621,40.63888931274414 -1.3333333730697632,30.63888931274414 C-0.5833333134651184,30.13888931274414 27,36 39.25,32.5 C51.5,29 55.16666793823242,20.96477699279785 55.16666793823242,20.96477699279785 C55.16666793823242,20.96477699279785 52.375,20.812000274658203 52.375,20.812000274658203 C52.375,20.812000274658203 59.4379997253418,20.756444931030273 59.4379997253418,20.756444931030273"/></g></g><g transform="matrix(1,0,0,1,256,256)" opacity="1" style="display: block;"><g opacity="1" transform="matrix(1,0,0,1,0,0)"><path fill="rgb(74,144,226)" fill-opacity="1" d=" M-69.20833587646484,-39.80555725097656 C-69.20833587646484,-39.80555725097656 -77.8191146850586,-47.779998779296875 -85.98611450195312,-44.05555725097656 C-94.65972137451172,-40.11111068725586 -95.58333587646484,-36.55555725097656 -97.33333587646484,-33.80555725097656 C-99.08333587646484,-31.05555534362793 -99.8388900756836,-21.359333038330078 -98.33333587646484,-14.30555534362793 C-95.81944274902344,-1.9583333730697632 -88.97628021240234,11.307888984680176 -85.48611450195312,16.98611068725586 C-79.6937255859375,28.229389190673828 -69.7949447631836,38.6428337097168 -58.57149887084961,35.97772216796875 C-54.51127624511719,34.86377716064453 -51.12366485595703,29.08477783203125 -51.84027862548828,20.02777862548828 C-51.84027862548828,19.52777862548828 -54.45833206176758,2.7083332538604736 -64.91666412353516,-20.43055534362793"/></g><g opacity="1" transform="matrix(1,0,0,1,0,0)"><path fill="rgb(13,118,241)" fill-opacity="1" d=" M-66.375,-37.31944274902344 C-66.375,-37.31944274902344 -70.18055725097656,-40.69444274902344 -74.18055725097656,-42.19444274902344 C-77.69155883789062,-43.511444091796875 -79.93055725097656,-37.94444274902344 -81.68055725097656,-35.19444274902344 C-83.43055725097656,-32.44444274902344 -84.43055725097656,-22.44444465637207 -82.68055725097656,-15.44444465637207 C-80.93055725097656,-8.44444465637207 -67.1334457397461,21.103221893310547 -61.69444274902344,27.84722137451172 C-57.430442810058594,33.135223388671875 -54.06944274902344,34.47222137451172 -53.04144287109375,30.820222854614258 C-51.915443420410156,26.818222045898438 -51.91644287109375,23.811222076416016 -52.69444274902344,18.84722137451172 C-54.52644348144531,7.152222156524658 -62.819000244140625,-16.884445190429688 -65.625,-24.31944465637207"/></g><g opacity="1" transform="matrix(1,0,0,1,0,0)"><path stroke-linecap="butt" stroke-linejoin="miter" fill-opacity="0" stroke-miterlimit="4" stroke="rgb(107,0,116)" stroke-opacity="1" stroke-width="2" d=" M-69.20833587646484,-39.80555725097656 C-69.20833587646484,-39.80555725097656 -77.8191146850586,-47.779998779296875 -85.98611450195312,-44.05555725097656 C-94.65972137451172,-40.11111068725586 -95.58333587646484,-36.55555725097656 -97.33333587646484,-33.80555725097656 C-99.08333587646484,-31.05555534362793 -99.8388900756836,-21.359333038330078 -98.33333587646484,-14.30555534362793 C-95.81944274902344,-1.9583333730697632 -88.97628021240234,11.307888984680176 -85.48611450195312,16.98611068725586 C-79.6937255859375,28.229389190673828 -69.7949447631836,38.6428337097168 -58.57149887084961,35.97772216796875 C-54.51127624511719,34.86377716064453 -51.12366485595703,29.08477783203125 -51.84027862548828,20.02777862548828 C-51.84027862548828,19.52777862548828 -54.45833206176758,2.7083332538604736 -64.91666412353516,-20.43055534362793"/></g></g><g transform="matrix(1,0,0,1,256,256)" opacity="1" style="display: block;"><g opacity="1" transform="matrix(1,0,0,1,0,0)"><path fill="rgb(74,144,226)" fill-opacity="1" d=" M-54.074180603027344,-90.05818176269531 C-64.5036392211914,-91.09091186523438 -74.52400207519531,-83.33599853515625 -74.93309020996094,-77.66400146484375 C-75.45454406738281,-70.4341812133789 -74.41163635253906,-67.07763671875 -70.7614517211914,-57.52399826049805 C-64.37054443359375,-40.797725677490234 -53.75,-5.613636493682861 -44.33781814575195,-1.8650909662246704 C-35.88090896606445,1.4572727680206299 -16.436182022094727,-2.3741817474365234 -21.634727478027344,-22.641454696655273 C-26.048545837402344,-39.87727355957031 -36.60490798950195,-67.85236358642578 -37.64781951904297,-71.46726989746094 C-38.69072723388672,-75.08218383789062 -43.64472579956055,-89.02545166015625 -54.074180603027344,-90.05818176269531z"/></g><g opacity="1" transform="matrix(1,0,0,1,0,0)"><path fill="rgb(13,118,241)" fill-opacity="1" d=" M-54.40909194946289,-90 C-59.40909194946289,-90.125 -65.89717864990234,-89.16409301757812 -62.28409194946289,-87.125 C-51.82854461669922,-81.2311782836914 -49.50727462768555,-71.7667236328125 -45.6363639831543,-62.681819915771484 C-38.37309265136719,-45.8304557800293 -27.5,-10.977272987365723 -33.25,-2.3522727489471436 C-34.99599838256836,0.2667272686958313 -18.070363998413086,-6.578454494476318 -21.204545974731445,-19.545454025268555 C-25.77763557434082,-40.400909423828125 -37.3863639831543,-70.68181610107422 -38.3863639831543,-74.18181610107422 C-39.3863639831543,-77.68181610107422 -44.362091064453125,-89.7490005493164 -54.40909194946289,-90z"/></g><g opacity="1" transform="matrix(1,0,0,1,0,0)"><path stroke-linecap="butt" stroke-linejoin="miter" fill-opacity="0" stroke-miterlimit="4" stroke="rgb(107,0,116)" stroke-opacity="1" stroke-width="2" d=" M-54.074180603027344,-90.05818176269531 C-64.5036392211914,-91.09091186523438 -74.52400207519531,-83.33599853515625 -74.93309020996094,-77.66400146484375 C-75.45454406738281,-70.4341812133789 -74.41163635253906,-67.07763671875 -70.7614517211914,-57.52399826049805 C-64.37054443359375,-40.797725677490234 -53.75,-5.613636493682861 -44.33781814575195,-1.8650909662246704 C-35.88090896606445,1.4572727680206299 -16.436182022094727,-2.3741817474365234 -21.634727478027344,-22.641454696655273 C-26.048545837402344,-39.87727355957031 -36.60490798950195,-67.85236358642578 -37.64781951904297,-71.46726989746094 C-38.69072723388672,-75.08218383789062 -43.64472579956055,-89.02545166015625 -54.074180603027344,-90.05818176269531z"/></g></g><g transform="matrix(1,0,0,1,256,256)" opacity="1" style="display: block;"><g opacity="1" transform="matrix(1,0,0,1,-0.9160000085830688,-1.0080000162124634)"><path fill="rgb(74,144,226)" fill-opacity="1" d=" M-20.886133193969727,-91.09086608886719 C-33.18586730957031,-88.98580169677734 -34.432865142822266,-78.53079986572266 -34.432865142822266,-78.53079986572266 C-34.432865142822266,-78.53079986572266 -34.83660125732422,-73.24413299560547 -33.21419906616211,-63.407135009765625 C-31.16426658630371,-50.993934631347656 -17.430866241455078,-7.515466690063477 -15.98799991607666,-2.6061999797821045 C-14.545866966247559,2.3030667304992676 -9.708133697509766,18.36953353881836 0.3889999985694885,18.947267532348633 C10.486133575439453,19.524999618530273 23.946733474731445,15.946800231933594 20.37933349609375,-2.4644665718078613 C17.614200592041016,-17.243534088134766 3.140000104904175,-74.12073516845703 -0.32199999690055847,-79.89659881591797 C-3.7839999198913574,-85.67247009277344 -10.0649995803833,-92.94373321533203 -20.886133193969727,-91.09086608886719z"/></g><g opacity="1" transform="matrix(1,0,0,1,-0.9160000085830688,-1.0080000162124634)"><path fill="rgb(13,118,241)" fill-opacity="1" d=" M-22.66666603088379,-90.69999694824219 C-20.450666427612305,-87.52532958984375 -8.932733535766602,-75.60320281982422 -5.816666603088379,-64.1500015258789 C-3.0326666831970215,-54.0258674621582 -0.5056666731834412,-46.547000885009766 1.3333333730697632,-38.125 C3.6713333129882812,-27.416000366210938 10.082666397094727,-2.175333261489868 10.666666984558105,5.066666603088379 C11.696666717529297,17.840665817260742 6.45686674118042,17.58953285217285 10.041666984558105,17 C16.0310001373291,16.05660057067871 20.432666778564453,9.304666519165039 20.16666603088379,4.316666603088379 C19.135665893554688,-14.990333557128906 5.383066654205322,-63.810665130615234 -1.5833333730697632,-81.83333587646484 C-5.540533542633057,-92.3280029296875 -22.573333740234375,-91.98113250732422 -22.66666603088379,-90.69999694824219z"/></g><g opacity="1" transform="matrix(1,0,0,1,-0.9160000085830688,-1.0080000162124634)"><path stroke-linecap="butt" stroke-linejoin="miter" fill-opacity="0" stroke-miterlimit="4" stroke="rgb(107,0,116)" stroke-opacity="1" stroke-width="2" d=" M-20.886133193969727,-91.09086608886719 C-33.18586730957031,-88.98580169677734 -34.432865142822266,-78.53079986572266 -34.432865142822266,-78.53079986572266 C-34.432865142822266,-78.53079986572266 -34.83660125732422,-73.24413299560547 -33.21419906616211,-63.407135009765625 C-31.16426658630371,-50.993934631347656 -17.430866241455078,-7.515466690063477 -15.98799991607666,-2.6061999797821045 C-14.545866966247559,2.3030667304992676 -9.708133697509766,18.36953353881836 0.3889999985694885,18.947267532348633 C10.486133575439453,19.524999618530273 23.946733474731445,15.946800231933594 20.37933349609375,-2.4644665718078613 C17.614200592041016,-17.243534088134766 3.140000104904175,-74.12073516845703 -0.32199999690055847,-79.89659881591797 C-3.7839999198913574,-85.67247009277344 -10.0649995803833,-92.94373321533203 -20.886133193969727,-91.09086608886719z"/></g></g><g transform="matrix(1,0,0,1,256,256)" opacity="1" style="display: block;"><g opacity="1" transform="matrix(1,0,0,1,0,0)"><path fill="rgb(74,144,226)" fill-opacity="1" d=" M30,-81.84061431884766 C21.947614669799805,-84.87384796142578 15.730769157409668,-82.60984802246094 15.730769157409668,-82.60984802246094 C15.730769157409668,-82.60984802246094 6.980769157409668,-80.85984802246094 5.480769157409668,-70.35984802246094 C3.980769157409668,-59.85984802246094 23.80792236328125,12.949153900146484 27.05792236328125,19.699153900146484 C30.30792236328125,26.449153900146484 30.55792236328125,28.699153900146484 41.30792236328125,29.699153900146484 C52.05792236328125,30.699153900146484 56.38038635253906,23.794384002685547 57.80792236328125,19.449153900146484 C61.30769348144531,7.961538314819336 44.980770111083984,-56.51369094848633 44.730770111083984,-56.76369094848633 C44.480770111083984,-57.01369094848633 39.5596923828125,-78.23153686523438 30,-81.84061431884766z"/></g><g opacity="1" transform="matrix(1,0,0,1,0,0)"><path fill="rgb(13,118,241)" fill-opacity="1" d=" M28.30769157409668,-82.51923370361328 C19.80769157409668,-84.01923370361328 13.615385055541992,-82.01923370361328 13.615385055541992,-82.01923370361328 C13.615385055541992,-82.01923370361328 26.173076629638672,-80 29.423076629638672,-68.75 C32.915077209472656,-56.6609992980957 48.82876968383789,-1.0156923532485962 49.21154022216797,12.115385055541992 C49.38822937011719,18.44476890563965 47.09130859375,28.04400062561035 48.32692337036133,28.230770111083984 C51.92307662963867,28.769229888916016 57.23584747314453,23.812999725341797 58.21154022216797,19.365385055541992 C60.88461685180664,4.57692289352417 43.5,-61.846153259277344 43.25,-62.096153259277344 C43,-62.346153259277344 38.19569396972656,-80.77423095703125 28.30769157409668,-82.51923370361328z"/></g><g opacity="1" transform="matrix(1,0,0,1,0,0)"><path stroke-linecap="butt" stroke-linejoin="miter" fill-opacity="0" stroke-miterlimit="4" stroke="rgb(107,0,116)" stroke-opacity="1" stroke-width="2" d=" M30,-81.84061431884766 C21.947614669799805,-84.87384796142578 15.730769157409668,-82.60984802246094 15.730769157409668,-82.60984802246094 C15.730769157409668,-82.60984802246094 6.980769157409668,-80.85984802246094 5.480769157409668,-70.35984802246094 C3.980769157409668,-59.85984802246094 23.80792236328125,12.949153900146484 27.05792236328125,19.699153900146484 C30.30792236328125,26.449153900146484 30.55792236328125,28.699153900146484 41.30792236328125,29.699153900146484 C52.05792236328125,30.699153900146484 56.38038635253906,23.794384002685547 57.80792236328125,19.449153900146484 C61.30769348144531,7.961538314819336 44.980770111083984,-56.51369094848633 44.730770111083984,-56.76369094848633 C44.480770111083984,-57.01369094848633 39.5596923828125,-78.23153686523438 30,-81.84061431884766z"/></g></g><g transform="matrix(1,0,0,1,255.89199829101562,367)" opacity="1" style="display: block;"><g opacity="1" transform="matrix(1,0,0,1,0,0)"><path fill="rgb(68,68,68)" fill-opacity="1" d=" M37.77199935913086,-7.428999900817871 C37.77199935913086,-7.428999900817871 37.77199935913086,-4.807000160217285 37.77199935913086,-4.807000160217285 C37.77199935913086,-4.807000160217285 40.242000579833984,-4.807000160217285 40.242000579833984,-4.807000160217285 C40.13999938964844,-4.185999870300293 39.81100082397461,-3.688999891281128 39.25400161743164,-3.315999984741211 C38.69599914550781,-2.941999912261963 37.98699951171875,-2.755000114440918 37.125999450683594,-2.755000114440918 C36.0620002746582,-2.755000114440918 35.250999450683594,-3.1730000972747803 34.694000244140625,-4.008999824523926 C34.21200180053711,-4.730999946594238 33.97200012207031,-5.65500020980835 33.97200012207031,-6.7829999923706055 C33.97200012207031,-7.909999847412109 34.21200180053711,-8.835000038146973 34.694000244140625,-9.557000160217285 C35.250999450683594,-10.392999649047852 36.0620002746582,-10.810999870300293 37.125999450683594,-10.810999870300293 C37.847999572753906,-10.810999870300293 38.46200180053711,-10.642000198364258 38.96900177001953,-10.307000160217285 C39.474998474121094,-9.970999717712402 39.75400161743164,-9.519000053405762 39.80500030517578,-8.949000358581543 C39.80500030517578,-8.949000358581543 43.3390007019043,-8.949000358581543 43.3390007019043,-8.949000358581543 C43.1870002746582,-10.545000076293945 42.47700119018555,-11.78600025177002 41.21099853515625,-12.67300033569336 C40.08300018310547,-13.458000183105469 38.74700164794922,-13.85099983215332 37.20199966430664,-13.85099983215332 C35.1879997253418,-13.85099983215332 33.555999755859375,-13.175999641418457 32.308998107910156,-11.82699966430664 C31.06100082397461,-10.477999687194824 30.437999725341797,-8.79699993133545 30.437999725341797,-6.7829999923706055 C30.437999725341797,-4.769000053405762 31.052000045776367,-3.0969998836517334 32.28099822998047,-1.7669999599456787 C33.547000885009766,-0.39899998903274536 35.1879997253418,0.2849999964237213 37.20199966430664,0.2849999964237213 C38.88600158691406,0.2849999964237213 40.14699935913086,-0.30399999022483826 40.983001708984375,-1.4819999933242798 C40.983001708984375,-1.4819999933242798 41.19200134277344,0 41.19200134277344,0 C41.19200134277344,0 43.47200012207031,0 43.47200012207031,0 C43.47200012207031,0 43.47200012207031,-7.428999900817871 43.47200012207031,-7.428999900817871 C43.47200012207031,-7.428999900817871 37.77199935913086,-7.428999900817871 37.77199935913086,-7.428999900817871z"/></g><g opacity="1" transform="matrix(1,0,0,1,0,-3.5952401161193848)"><path fill="rgb(68,68,68)" fill-opacity="1" d=" M20.159000396728516,0 C20.159000396728516,0 20.159000396728516,-8.454999923706055 20.159000396728516,-8.454999923706055 C20.159000396728516,-8.454999923706055 24.892000198364258,0 24.892000198364258,0 C24.892000198364258,0 28.538000106811523,0 28.538000106811523,0 C28.538000106811523,0 28.538000106811523,-13.565999984741211 28.538000106811523,-13.565999984741211 C28.538000106811523,-13.565999984741211 25.21299934387207,-13.565999984741211 25.21299934387207,-13.565999984741211 C25.21299934387207,-13.565999984741211 25.21299934387207,-5.205999851226807 25.21299934387207,-5.205999851226807 C25.21299934387207,-5.205999851226807 20.479000091552734,-13.565999984741211 20.479000091552734,-13.565999984741211 C20.479000091552734,-13.565999984741211 16.833999633789062,-13.565999984741211 16.833999633789062,-13.565999984741211 C16.833999633789062,-13.565999984741211 16.833999633789062,0 16.833999633789062,0 C16.833999633789062,0 20.159000396728516,0 20.159000396728516,0z"/></g><g opacity="1" transform="matrix(1,0,0,1,0,0)"><path fill="rgb(68,68,68)" fill-opacity="1" d=" M14.420999526977539,0 C14.420999526977539,0 14.420999526977539,-13.565999984741211 14.420999526977539,-13.565999984741211 C14.420999526977539,-13.565999984741211 10.88700008392334,-13.565999984741211 10.88700008392334,-13.565999984741211 C10.88700008392334,-13.565999984741211 10.88700008392334,0 10.88700008392334,0 C10.88700008392334,0 14.420999526977539,0 14.420999526977539,0z"/></g><g opacity="1" transform="matrix(1,0,0,1,0,0)"><path fill="rgb(68,68,68)" fill-opacity="1" d=" M1.6720000505447388,-10.526000022888184 C4.166999816894531,-10.526000022888184 5.414999961853027,-9.303000450134277 5.414999961853027,-6.859000205993652 C5.414999961853027,-5.502999782562256 5.126999855041504,-4.5279998779296875 4.551000118255615,-3.933000087738037 C3.9739999771118164,-3.3369998931884766 3.0139999389648438,-3.0399999618530273 1.6720000505447388,-3.0399999618530273 C1.6720000505447388,-3.0399999618530273 0,-3.0399999618530273 0,-3.0399999618530273 C0,-3.0399999618530273 0,-10.526000022888184 0,-10.526000022888184 C0,-10.526000022888184 1.6720000505447388,-10.526000022888184 1.6720000505447388,-10.526000022888184z M2.2990000247955322,0 C4.388999938964844,0 6.019999980926514,-0.5889999866485596 7.191999912261963,-1.7669999599456787 C8.36299991607666,-2.944999933242798 8.949000358581543,-4.636000156402588 8.949000358581543,-6.840000152587891 C8.949000358581543,-8.942000389099121 8.359999656677246,-10.58899974822998 7.182000160217285,-11.779999732971191 C6.004000186920166,-12.970000267028809 4.375999927520752,-13.565999984741211 2.2990000247955322,-13.565999984741211 C2.2990000247955322,-13.565999984741211 -3.5339999198913574,-13.565999984741211 -3.5339999198913574,-13.565999984741211 C-3.5339999198913574,-13.565999984741211 -3.5339999198913574,0 -3.5339999198913574,0 C-3.5339999198913574,0 2.2990000247955322,0 2.2990000247955322,0z"/></g><g opacity="1" transform="matrix(1,0,0,1,0,0)"><path fill="rgb(68,68,68)" fill-opacity="1" d=" M-14.668000221252441,0 C-14.668000221252441,0 -13.812999725341797,-2.431999921798706 -13.812999725341797,-2.431999921798706 C-13.812999725341797,-2.431999921798706 -9.081999778747559,-2.431999921798706 -9.081999778747559,-2.431999921798706 C-9.081999778747559,-2.431999921798706 -8.246000289916992,0 -8.246000289916992,0 C-8.246000289916992,0 -4.559999942779541,0 -4.559999942779541,0 C-4.559999942779541,0 -9.633000373840332,-13.565999984741211 -9.633000373840332,-13.565999984741211 C-9.633000373840332,-13.565999984741211 -13.223999977111816,-13.565999984741211 -13.223999977111816,-13.565999984741211 C-13.223999977111816,-13.565999984741211 -18.297000885009766,0 -18.297000885009766,0 C-18.297000885009766,0 -14.668000221252441,0 -14.668000221252441,0z M-11.418999671936035,-9.803999900817871 C-11.418999671936035,-9.803999900817871 -9.918000221252441,-5.053999900817871 -9.918000221252441,-5.053999900817871 C-9.918000221252441,-5.053999900817871 -12.996000289916992,-5.053999900817871 -12.996000289916992,-5.053999900817871 C-12.996000289916992,-5.053999900817871 -11.456999778747559,-9.803999900817871 -11.456999778747559,-9.803999900817871 C-11.456999778747559,-9.803999900817871 -11.418999671936035,-9.803999900817871 -11.418999671936035,-9.803999900817871z"/></g><g opacity="1" transform="matrix(1,0,0,1,0,0)"><path fill="rgb(68,68,68)" fill-opacity="1" d=" M-27.948999404907227,-9.557000160217285 C-27.392000198364258,-10.392999649047852 -26.58099937438965,-10.810999870300293 -25.517000198364258,-10.810999870300293 C-24.452999114990234,-10.810999870300293 -23.64299964904785,-10.392999649047852 -23.084999084472656,-9.557000160217285 C-22.604000091552734,-8.835000038146973 -22.363000869750977,-7.909999847412109 -22.363000869750977,-6.7829999923706055 C-22.363000869750977,-5.65500020980835 -22.604000091552734,-4.730999946594238 -23.084999084472656,-4.008999824523926 C-23.64299964904785,-3.1730000972747803 -24.452999114990234,-2.755000114440918 -25.517000198364258,-2.755000114440918 C-26.58099937438965,-2.755000114440918 -27.392000198364258,-3.1730000972747803 -27.948999404907227,-4.008999824523926 C-28.430999755859375,-4.730999946594238 -28.67099952697754,-5.65500020980835 -28.67099952697754,-6.7829999923706055 C-28.67099952697754,-7.909999847412109 -28.430999755859375,-8.835000038146973 -27.948999404907227,-9.557000160217285z M-30.457000732421875,-1.7669999599456787 C-29.240999221801758,-0.39899998903274536 -27.594999313354492,0.2849999964237213 -25.517000198364258,0.2849999964237213 C-23.440000534057617,0.2849999964237213 -21.792999267578125,-0.39899998903274536 -20.57699966430664,-1.7669999599456787 C-19.41200065612793,-3.071000099182129 -18.82900047302246,-4.743000030517578 -18.82900047302246,-6.7829999923706055 C-18.82900047302246,-8.821999549865723 -19.41200065612793,-10.494000434875488 -20.57699966430664,-11.798999786376953 C-21.792999267578125,-13.166999816894531 -23.440000534057617,-13.85099983215332 -25.517000198364258,-13.85099983215332 C-27.594999313354492,-13.85099983215332 -29.240999221801758,-13.166999816894531 -30.457000732421875,-11.798999786376953 C-31.62299919128418,-10.494000434875488 -32.20500183105469,-8.821999549865723 -32.20500183105469,-6.7829999923706055 C-32.20500183105469,-4.743000030517578 -31.62299919128418,-3.071000099182129 -30.457000732421875,-1.7669999599456787z"/></g><g opacity="1" transform="matrix(1,0,0,1,0,0)"><path fill="rgb(68,68,68)" fill-opacity="1" d=" M-33.439998626708984,0 C-33.439998626708984,0 -33.439998626708984,-3.0399999618530273 -33.439998626708984,-3.0399999618530273 C-33.439998626708984,-3.0399999618530273 -39.766998291015625,-3.0399999618530273 -39.766998291015625,-3.0399999618530273 C-39.766998291015625,-3.0399999618530273 -39.766998291015625,-13.565999984741211 -39.766998291015625,-13.565999984741211 C-39.766998291015625,-13.565999984741211 -43.30099868774414,-13.565999984741211 -43.30099868774414,-13.565999984741211 C-43.30099868774414,-13.565999984741211 -43.30099868774414,0 -43.30099868774414,0 C-43.30099868774414,0 -33.439998626708984,0 -33.439998626708984,0z"/></g></g></g></svg>